<svg width="106" height="106" viewBox="0 0 106 106" fill="none" xmlns="http://www.w3.org/2000/svg">
<path d="M78.155 69.0472L82 64.5025L73.3081 54.325L65.1849 51.6046L70.3567 50.7725L81.7022 40.5309L78.4529 35.4102L68.1363 44.5315L60.8796 45.9718L69.5444 35.7622L66.5388 21.2L61.1233 22.7362L63.4519 33.7779L60.4734 37.4265C59.8492 35.6945 58.8079 34.2176 57.4792 33.1795C56.1504 32.1414 54.5928 31.588 53 31.588C51.4072 31.588 49.8496 32.1414 48.5209 33.1795C47.1921 34.2176 46.1508 35.6945 45.5266 37.4265L42.4669 33.7779L44.8768 22.7362L39.4613 21.2L36.4557 35.7622L45.1205 45.9718L37.8366 44.5315L27.5472 35.4102L24.2979 40.5309L35.6704 50.7725L40.7068 51.7646L32.5836 54.485L24 64.5025L27.845 69.0472L35.3996 60.0219L41.817 57.8775L31.338 68.5032V85.9778H36.7535V71.4476L40.9776 67.159C41.4476 70.5268 42.9143 73.5878 45.1163 75.7963C47.3182 78.0048 50.1122 79.2171 53 79.2171C55.8878 79.2171 58.6818 78.0048 60.8838 75.7963C63.0857 73.5878 64.5524 70.5268 65.0224 67.159L69.2465 71.4476V85.9778H74.662V68.5032L64.183 57.8775L70.6004 60.0219L78.155 69.0472Z" fill="#9C0000"/>
</svg>
